# xmcd CD database file
#
# Track frame offsets:
#	150
#	8661
#	23673
#	35056
#	44717
#
# Disc length: 813 seconds
#
# Revision: 0
# Processed by: cddbd v1.5.2PL0 Copyright (c) Steve Scherf et al.
# Submitted via: CDex 1.51
#
DISCID=37032b05
DTITLE=Protagonist - Reasoning with Time
DYEAR=2007
DGENRE=Salsa
TTITLE0=We
TTITLE1=Reasoning With Time
TTITLE2=Snakes and Thieves
TTITLE3=Split Apart
TTITLE4=Everyday is Like Sunday
EXTD=YEAR: 2007
EXTT0=
EXTT1=
EXTT2=
EXTT3=
EXTT4=
PLAYORDER=
